<?xml version="1.0" encoding="utf-8"?>
<!-- Generator: Adobe Illustrator 23.0.1, SVG Export Plug-In . SVG Version: 6.00 Build 0)  -->
<svg version="1.1" id="Layer_1" xmlns="http://www.w3.org/2000/svg" xmlns:xlink="http://www.w3.org/1999/xlink" x="0px" y="0px"
	 viewBox="0 0 10.5 16.8" style="enable-background:new 0 0 10.5 16.8;" xml:space="preserve">
<title>Asset 14</title>
<g>
	<g id="Layer_1-2">
		<path d="M9.7,5.2H5.9L7.3,1c0.1-0.4-0.1-0.9-0.6-1C6.7,0,6.6,0,6.6,0H1.8C1.4,0,1.1,0.3,1.1,0.7L0,8.5C-0.1,9,0.2,9.4,0.7,9.4
			c0,0,0.1,0,0.1,0h3.9l-1.5,6.4c-0.1,0.4,0.2,0.8,0.6,0.9c0.3,0.1,0.7-0.1,0.9-0.4l5.8-10c0.2-0.4,0-0.9-0.4-1.1
			C9.9,5.3,9.8,5.2,9.7,5.2z"/>
	</g>
</g>
</svg>
