<?xml version="1.0" encoding="utf-8"?>
<!-- Generator: Adobe Illustrator 23.0.1, SVG Export Plug-In . SVG Version: 6.00 Build 0)  -->
<svg version="1.1" id="Layer_1" xmlns="http://www.w3.org/2000/svg" xmlns:xlink="http://www.w3.org/1999/xlink" x="0px" y="0px"
	 viewBox="0 0 13.2 17.5" style="enable-background:new 0 0 13.2 17.5;" xml:space="preserve">
<style type="text/css">
	.st0{stroke:#4F4F4F;stroke-width:0.5;stroke-miterlimit:10;}
</style>
<title>Asset 13</title>
<g>
	<g id="Layer_1-2">
		<path class="st0" d="M6.6,0.3c-3.7,3.3-6.3,7.3-6.3,9.9c0,4.1,2.6,7,6.3,7s6.3-2.9,6.3-7C12.9,7.6,10.3,3.7,6.6,0.3z M6.6,15.1
			c-1.7,0.1-3.1-1.2-3.2-2.8c0-0.1,0-0.2,0-0.3c0-0.4,0.2-2,3.2-5.3c3,3.3,3.2,4.8,3.2,5.3c0.1,1.7-1.2,3-2.9,3.1
			C6.8,15.1,6.7,15.1,6.6,15.1z"/>
	</g>
</g>
</svg>
