<?xml version="1.0" encoding="utf-8"?>
<!-- Generator: Adobe Illustrator 23.0.1, SVG Export Plug-In . SVG Version: 6.00 Build 0)  -->
<svg version="1.1" id="Layer_1" xmlns="http://www.w3.org/2000/svg" xmlns:xlink="http://www.w3.org/1999/xlink" x="0px" y="0px"
	 viewBox="0 0 21.2 12.4" style="enable-background:new 0 0 21.2 12.4;" xml:space="preserve">
<title>Asset 11</title>
<g>
	<g id="Layer_1-2">
		<path d="M20.3,0h-6.5c-0.7,0-1.3,0.6-1.3,1.3c0,0.3,0.1,0.7,0.4,0.9l1.8,1.8l-4,4l-4-4C5.9,3.4,4.8,3.4,4.1,4c0,0,0,0,0,0L0.3,7.8
			c-0.3,0.3-0.3,0.9,0,1.2c0,0,0,0,0,0l1.3,1.3c0.3,0.3,0.9,0.3,1.2,0l2.5-2.5l4.1,4c0.7,0.7,1.8,0.7,2.5,0c0,0,0,0,0,0l5.3-5.3
			l1.8,1.8c0.5,0.5,1.4,0.5,1.9,0C21,8,21.2,7.7,21.2,7.3V0.9C21.2,0.4,20.8,0,20.3,0C20.3,0,20.3,0,20.3,0z"/>
	</g>
</g>
</svg>
