<?xml version="1.0" encoding="utf-8"?>
<!-- Generator: Adobe Illustrator 23.0.1, SVG Export Plug-In . SVG Version: 6.00 Build 0)  -->
<svg version="1.1" id="Layer_1" xmlns="http://www.w3.org/2000/svg" xmlns:xlink="http://www.w3.org/1999/xlink" x="0px" y="0px"
	 viewBox="0 0 14.2 17.3" style="enable-background:new 0 0 14.2 17.3;" xml:space="preserve">
<title>Asset 10</title>
<g>
	<g id="Layer_1-2">
		<path d="M7.6,0.2c-0.3-0.3-0.7-0.3-1,0L2.8,4c-0.4,0.4-0.4,1.1,0,1.5C3,5.7,3.3,5.8,3.5,5.8h1.8v10.6c0,0.5,0.4,0.8,0.9,0.9h1.7
			c0.5,0,0.8-0.4,0.9-0.9V5.8h1.8c0.6,0,1.1-0.5,1-1.1c0-0.3-0.1-0.5-0.3-0.7L7.6,0.2z"/>
		<path d="M0.9,10.8h1.7c0.5,0,0.9,0.4,0.9,0.9v4.7c0,0.5-0.4,0.9-0.9,0.9H0.9c-0.5,0-0.9-0.4-0.9-0.9v-4.7
			C0,11.2,0.4,10.8,0.9,10.8z"/>
		<path d="M11.7,6.5h1.7c0.5,0,0.9,0.4,0.9,0.9v9.1c0,0.5-0.4,0.9-0.9,0.9h-1.7c-0.5,0-0.9-0.4-0.9-0.9V7.4
			C10.8,6.9,11.2,6.5,11.7,6.5z"/>
	</g>
</g>
</svg>
