<svg xmlns="http://www.w3.org/2000/svg" viewBox="0 0 28.26 27.65"><defs><style>.cls-1{fill:#fff;}</style></defs><title>White</title><g id="Layer_2" data-name="Layer 2"><g id="Layer_1-2" data-name="Layer 1"><path class="cls-1" d="M12.79,27.55a4.67,4.67,0,0,0,1.41-.82Q20.89,21,27.53,15.25a1.9,1.9,0,0,0,.73-1.42,1.91,1.91,0,0,0-.74-1.43l-.89-.77Q20.42,6.26,14.19.92A4.79,4.79,0,0,0,12.65.07.91.91,0,0,0,11.5.44a4.92,4.92,0,0,0-.42,1.14l0,.06c2.79,2.44,5.54,4.82,8.29,7.19l5.78,5-.8.71L11.43,25.66a2.61,2.61,0,0,0-.41.4,2.65,2.65,0,0,0,.16.56.92.92,0,0,0,.09.23A1.13,1.13,0,0,0,12.79,27.55Z"/><path class="cls-1" d="M1.71,27.58a5.07,5.07,0,0,0,1.57-.89c3.66-3.12,7.29-6.26,10.93-9.4l2.28-2a2.07,2.07,0,0,0,.81-1.5,2.05,2.05,0,0,0-.82-1.5L16.1,12C11.82,8.31,7.55,4.61,3.25.93A4.56,4.56,0,0,0,2.05.18,1.68,1.68,0,0,0,1.35,0,1,1,0,0,0,.91.11,1.38,1.38,0,0,0,.24,1,5.81,5.81,0,0,0,0,2.63Q0,6.83,0,11V25.07A4.09,4.09,0,0,0,.35,27,1.08,1.08,0,0,0,1.71,27.58Zm1-23.71,11.54,10-11.54,10Z"/></g></g></svg>