<svg xmlns="http://www.w3.org/2000/svg" viewBox="0 0 447.91 73.64"><defs><style>.cls-1{stroke:#000;}.cls-1,.cls-2,.cls-3{stroke-miterlimit:10;}.cls-1,.cls-2{stroke-width:2.61px;}.cls-2{fill:#828282;stroke:#828282;}.cls-3{fill:#ff4500;stroke:#ff4500;}</style></defs><title>Asset 3</title><g id="Layer_2" data-name="Layer 2"><g id="Layer_1-2" data-name="Layer 1"><path class="cls-1" d="M6.18,55c0,2-.88,3.12-2.44,3.12S1.3,57,1.3,55V24.34c0-2,.89-3.12,2.44-3.12s2.44,1.08,2.44,3.12v3.39h.14c1.76-4,4.88-6.51,7.93-6.51,2.31,0,3.26,1.29,3.26,2.64s-1,2.1-3.33,2.65c-2.71.61-8,2.91-8,10.91Z"/><path class="cls-1" d="M27.81,41.83C28,48.13,32.29,54,38.52,54c7.73,0,9.77-5.56,12.07-5.56,1.36,0,2.31.48,2.31,2.37,0,2.17-5.63,7.26-14,7.26-11.52,0-16.34-9.36-16.34-18.44s5.36-18.44,15.53-18.44,15.39,8.54,15.39,17.62c0,1.29-.41,3-3.32,3Zm20.34-4.07c-.2-6-3.59-12.47-10.17-12.47S28,31.73,27.81,37.76Z"/><path class="cls-1" d="M85.1,8.47c0-2,.88-3.12,2.44-3.12S90,6.44,90,8.47V55c0,2-.88,3.12-2.44,3.12S85.1,57,85.1,55V52.74h-.2a11.26,11.26,0,0,1-10,5.36c-10.37,0-15.52-8.27-15.52-18.44,0-9.09,5-18.44,15.39-18.44,4.2,0,7.32,1.76,10.1,5.35h.2ZM74.93,54c7.59,0,10.17-7.8,10.17-14.37S82.52,25.29,74.93,25.29c-7.39,0-10.24,7.79-10.24,14.37S67.34,54,74.93,54Z"/><path class="cls-1" d="M124.49,8.47c0-2,.88-3.12,2.44-3.12s2.44,1.09,2.44,3.12V55c0,2-.88,3.12-2.44,3.12S124.49,57,124.49,55V52.74h-.2a11.24,11.24,0,0,1-10,5.36C104,58.1,98.8,49.83,98.8,39.66c0-9.09,5-18.44,15.39-18.44,4.2,0,7.32,1.76,10.1,5.35h.2ZM114.32,54c7.6,0,10.17-7.8,10.17-14.37s-2.57-14.37-10.17-14.37c-7.39,0-10.23,7.79-10.23,14.37S106.73,54,114.32,54Z"/><path class="cls-1" d="M144.9,55c0,2-.88,3.12-2.44,3.12S140,57,140,55V24.34c0-2,.88-3.12,2.44-3.12s2.44,1.08,2.44,3.12Z"/><path class="cls-1" d="M161.65,55c0,2-.89,3.12-2.44,3.12S156.76,57,156.76,55V25.69h-3.18a2,2,0,1,1,0-4.07h3.18V13.69c0-2.1.89-3.18,2.45-3.18s2.44,1.08,2.44,3.18v7.93h3.18a2,2,0,1,1,0,4.07h-3.18Z"/><path class="cls-2" d="M192.83,55.86c-.61,1.22-1,2.24-2.71,2.24A1.94,1.94,0,0,1,188,56.2a6,6,0,0,1,.48-2L204,12.54C204.56,11,205.31,9,207.75,9s3.18,2,3.79,3.53l15.53,41.63a6.21,6.21,0,0,1,.47,2,1.93,1.93,0,0,1-2.17,1.9c-1.69,0-2.23-1-2.71-2.24l-3.18-8.68H196Zm15-40.47h-.14l-10,27.32h20.2Z"/><path class="cls-2" d="M234.66,24.34c0-2,.89-3.12,2.45-3.12s2.44,1.08,2.44,3.12V44.61c0,6.17,3.32,9.42,8.81,9.42s8.81-3.25,8.81-9.42V24.34c0-2,.88-3.12,2.44-3.12s2.44,1.08,2.44,3.12V45.83c0,7.79-6,12.27-13.69,12.27s-13.7-4.48-13.7-12.27Z"/><path class="cls-2" d="M278.8,55c0,2-.88,3.12-2.44,3.12S273.92,57,273.92,55V25.69h-3.19a2,2,0,1,1,0-4.07h3.19V13.69c0-2.1.88-3.18,2.44-3.18s2.44,1.08,2.44,3.18v7.93H282a2,2,0,1,1,0,4.07H278.8Z"/><path class="cls-2" d="M304.36,58.1c-10.37,0-15.53-8.27-15.53-18.44,0-9.09,4.95-18.44,15.53-18.44s15.53,9.35,15.53,18.44C319.89,49.83,314.73,58.1,304.36,58.1Zm0-4.07c7.59,0,10.24-7.8,10.24-14.37S312,25.29,304.36,25.29s-10.24,7.79-10.24,14.37S296.77,54,304.36,54Z"/><path class="cls-2" d="M328.7,24.34c0-2,.88-3.12,2.44-3.12s2.44,1.08,2.44,3.12v2.23h.2a11.27,11.27,0,0,1,10-5.35c10.37,0,15.53,8.27,15.53,18.44,0,9.08-4.95,18.44-15.39,18.44-4.21,0-7.32-1.77-10.11-5.36h-.2V69.22c0,2-.88,3.11-2.44,3.11s-2.44-1.08-2.44-3.11ZM343.75,54c7.59,0,10.24-7.8,10.24-14.37s-2.65-14.37-10.24-14.37-10.24,7.79-10.24,14.37S336.16,54,343.75,54Z"/><path class="cls-2" d="M373,55c0,2-.88,3.12-2.44,3.12S368.09,57,368.09,55V8.47c0-2,.88-3.12,2.44-3.12S373,6.44,373,8.47Z"/><path class="cls-2" d="M407.48,24.34c0-2,.88-3.12,2.44-3.12s2.44,1.08,2.44,3.12V55c0,2-.88,3.12-2.44,3.12S407.48,57,407.48,55V52.74h-.2a11.26,11.26,0,0,1-10,5.36c-10.37,0-15.52-8.27-15.52-18.44,0-9.09,4.94-18.44,15.39-18.44,4.2,0,7.32,1.76,10.1,5.35h.2ZM397.31,54c7.59,0,10.17-7.8,10.17-14.37s-2.58-14.37-10.17-14.37c-7.39,0-10.24,7.79-10.24,14.37S389.72,54,397.31,54Z"/><path class="cls-2" d="M419.62,24.88a3.88,3.88,0,0,1-.27-1.43,2.21,2.21,0,0,1,2.23-2.23c1.36,0,2.11.81,2.58,2.23l8.75,26.17H433l8.75-26.17c.47-1.42,1.22-2.23,2.57-2.23a2.21,2.21,0,0,1,2.24,2.23,4.1,4.1,0,0,1-.27,1.43l-15.59,45c-.55,1.63-1.29,2.44-2.65,2.44a2.08,2.08,0,0,1-2.23-2,5.41,5.41,0,0,1,.4-2l4.41-11.59Z"/><path class="cls-3" d="M149.46,8.14l-2.84-2.45-4.41-3.82c-.06-.05-.13-.16-.11-.22a2.92,2.92,0,0,1,.29-.78.73.73,0,0,1,.94-.31,2.74,2.74,0,0,1,.9.5c2.38,2,4.74,4.07,7.11,6.11a1.21,1.21,0,0,1,0,1.94c-2.36,2-4.73,4.09-7.1,6.12a2.7,2.7,0,0,1-.84.48.86.86,0,0,1-1.16-.52.58.58,0,0,1-.05-.14c-.16-.47-.16-.49.21-.81l6.87-5.93Z"/><path class="cls-3" d="M145.46,7.14l-7.05-6.08a2.9,2.9,0,0,0-.71-.44.91.91,0,0,0-1.35.62,3.68,3.68,0,0,0-.13.94c0,2,0,4,0,6v6a2.31,2.31,0,0,0,.22,1.13.82.82,0,0,0,1.06.47,3.09,3.09,0,0,0,.92-.52c2.35-2,4.69-4,7-6.06A1.22,1.22,0,0,0,145.46,7.14Zm-7.27,5.71V3.44l5.45,4.7Z"/></g></g></svg>