<svg xmlns="http://www.w3.org/2000/svg" viewBox="0 0 16.61 16.28"><defs><style>.cls-1{fill:#ff4500;stroke:#ff4500;stroke-miterlimit:10;}</style></defs><title>Asset 1</title><g id="Layer_2" data-name="Layer 2"><g id="Layer_1-2" data-name="Layer 1"><path class="cls-1" d="M13.74,8.14,10.91,5.69,6.49,1.87a.31.31,0,0,1-.11-.22A3.3,3.3,0,0,1,6.67.87.73.73,0,0,1,7.61.56a2.89,2.89,0,0,1,.91.5l7.1,6.11a1.21,1.21,0,0,1,0,1.94c-2.36,2-4.72,4.09-7.1,6.12a2.7,2.7,0,0,1-.84.48.85.85,0,0,1-1.15-.52.59.59,0,0,1-.06-.14c-.16-.47-.15-.49.22-.81l6.87-5.93Z"/><path class="cls-1" d="M9.74,7.14l-7-6.08A2.9,2.9,0,0,0,2,.62a.9.9,0,0,0-1.34.62,3.28,3.28,0,0,0-.13.94c0,2,0,4,0,6v6a2.43,2.43,0,0,0,.22,1.13.83.83,0,0,0,1.06.47,3.09,3.09,0,0,0,.92-.52c2.36-2,4.7-4,7-6.06A1.22,1.22,0,0,0,9.74,7.14ZM2.47,12.85V3.44l5.45,4.7Z"/></g></g></svg>