<svg xmlns="http://www.w3.org/2000/svg" viewBox="0 0 18.87 18.51"><defs><style>.cls-1{fill:#ff4500;}</style></defs><title>Asset 1</title><g id="Layer_2" data-name="Layer 2"><g id="Layer_1-2" data-name="Layer 1"><path class="cls-1" d="M11.19,8Q6.93,4.34,2.65.67A3.47,3.47,0,0,0,1.79.13,1.1,1.1,0,0,0,.17.88,4,4,0,0,0,0,2C0,4.43,0,6.83,0,9.24V16.5a2.81,2.81,0,0,0,.27,1.37,1,1,0,0,0,1.28.57,3.85,3.85,0,0,0,1.12-.63q4.27-3.66,8.52-7.34A1.49,1.49,0,0,0,11.19,8ZM2.39,15V3.55L9,9.25Z"/><path class="cls-1" d="M18.29,8,9.75.67A3.82,3.82,0,0,0,9,.17,1.21,1.21,0,0,0,7.26.88c0,.12-.06.24-.08.36a.48.48,0,0,0,.16.45l3,2.62,5.72,4.94-5.93,5.11L7.33,16.83a.48.48,0,0,0-.17.45,2.05,2.05,0,0,0,.26.7,1.09,1.09,0,0,0,1.31.43,3.92,3.92,0,0,0,1-.6q4.28-3.66,8.52-7.34A1.57,1.57,0,0,0,18.29,8Z"/></g></g></svg>